# xmcd
#
# Track frame offsets:
#	182
#	11885
#	23325
#	43167
#	61077
#	73150
#	80947
#	95835
#	111092
#	126435
#	139627
#	152572
#	164300
#	176335
#	187265
#	206750
#	222012
#	240710
#
# Disc length: 3385
#
# Revision: 4
# Processed by: cddbd v1.5.1PL0 Copyright (c) Steve Scherf et al.
# Submitted via: ExactAudioCopy v0.90b4
# Normalized: r3:DSETVAR1
#
DISCID=050d3712
DTITLE=Various Artist - Blues and Soul [CD1]
DYEAR=1994
DGENRE=Blues and Soul
TTITLE0=Sam and Dave - Soul Man
TTITLE1=The Drifters - Saturday Night At The Movies
TTITLE2=James Brown - You Can't Keep A Good Man Down
TTITLE3=Percy Sledge - When A Man Loves A Woman
TTITLE4=Brook Benton - Kiddio
TTITLE5=Eddie Floyd - Knock On Wood
TTITLE6=George McCray - Rock Your Baby
TTITLE7=Mary Wells - My Guy
TTITLE8=Dobie Gray - Feelings
TTITLE9=Ben E King - Stand By Me
TTITLE10=Martha Reeves - It's The Same Old Song
TTITLE11=Jerry Butler - Only The Stong Survive
TTITLE12=The Tymes - You Little Trustmaker
TTITLE13=The Platters - Smoke Gets In Your Eyes
TTITLE14=Supremes - Stop In The Name Of Love
TTITLE15=Johnny Bristol - Someday We'll Be Together
TTITLE16=Lou Rawls - Lady Love (Live)
TTITLE17=Temptations - My Girl
EXTD=
EXTT0=
EXTT1=
EXTT2=
EXTT3=
EXTT4=
EXTT5=
EXTT6=
EXTT7=
EXTT8=
EXTT9=
EXTT10=
EXTT11=
EXTT12=
EXTT13=
EXTT14=
EXTT15=
EXTT16=
EXTT17=
PLAYORDER=
